<?xml version="1.0" encoding="UTF-8" standalone="no"?>
<!DOCTYPE svg PUBLIC "-//W3C//DTD SVG 1.1//EN" "http://www.w3.org/Graphics/SVG/1.1/DTD/svg11.dtd">
<svg width="100%" height="100%" viewBox="0 0 213 310" version="1.1" xmlns="http://www.w3.org/2000/svg" xmlns:xlink="http://www.w3.org/1999/xlink" xml:space="preserve" xmlns:serif="http://www.serif.com/" style="fill-rule:evenodd;clip-rule:evenodd;stroke-linecap:round;stroke-linejoin:round;stroke-miterlimit:1.5;">
<path id="Palm-1" serif:id="Palm 1" d="M169.246,142.154c10.47,14.148 16.663,31.648 16.663,50.584c0,16.658 -4.793,32.206 -13.075,45.337c-9.177,37.124 -42.734,64.683 -82.676,64.683c-15.962,0 -30.904,-4.401 -43.677,-12.054c-24.84,-14.883 -41.481,-42.065 -41.481,-73.104c-0,-16.658 4.794,-32.206 13.075,-45.337c4.391,-6.962 9.763,-13.245 15.92,-18.655c16.348,-2.53 31.165,-9.717 43.053,-20.161c4.04,-3.549 7.742,-7.474 11.05,-11.721c19.785,11.2 42.641,17.595 66.979,17.595c3.901,0 7.765,-0.164 11.584,-0.486c0.737,-0.062 1.473,-0.13 2.207,-0.204c0.141,1.17 0.267,2.344 0.378,3.523Z" style="fill:#fff;stroke:#000;stroke-width:10px;"/><path id="Palm-2" serif:id="Palm 2" d="M174.762,285.56c-10.832,6.697 -22.712,11.856 -35.337,15.171c-10.609,2.785 -21.744,4.269 -33.222,4.269c-2.925,0 -5.828,-0.096 -8.705,-0.286c-5.605,-0.37 -11.113,-1.093 -16.504,-2.149c-3.41,-6.195 -6.04,-12.879 -7.756,-19.92c-1.513,-6.21 -2.315,-12.696 -2.315,-19.369c0,-24.014 10.391,-45.621 26.918,-60.566c8.029,5.754 17.867,9.142 28.489,9.142c4.827,-0 9.492,-0.7 13.899,-2.003c13.491,-3.99 24.564,-13.64 30.463,-26.194c2.966,-6.312 4.624,-13.358 4.624,-20.789c0,-2.751 -0.227,-5.449 -0.664,-8.077c14.953,11.181 25.953,27.363 30.508,46.058c1.513,6.21 2.315,12.696 2.315,19.368c0,26.713 -12.856,50.446 -32.713,65.345Z" style="fill:#fff;stroke:#000;stroke-width:10px;"/>
<path id="Finger-5" serif:id="Finger 5" d="M100.74,12.029c5.741,-4.408 12.924,-7.029 20.715,-7.029c5.12,0 9.977,1.132 14.335,3.159c9.199,10.355 15.912,22.965 19.203,36.892c1.488,6.301 2.276,12.872 2.276,19.625c-0,20.272 -7.099,38.899 -18.944,53.528c-20.867,-11.655 -36.337,-31.835 -41.683,-55.814c-1.334,-5.983 -2.038,-12.203 -2.038,-18.585c0,-11.231 2.178,-21.956 6.136,-31.776Z" style="fill:#fff;stroke:#000;stroke-width:10px;"/><path id="Finger-4" serif:id="Finger 4" d="M96.225,85.438c0.002,0.2 0.002,0.4 0.002,0.6c0,44.327 -33.941,80.789 -77.231,84.793c12.892,-20.812 20.336,-45.346 20.336,-71.605c0,-3.374 -0.123,-6.718 -0.364,-10.031c-0.737,-10.112 -2.58,-19.919 -5.408,-29.301c3.985,-14.386 17.183,-24.96 32.831,-24.96c5.541,-0 10.774,1.325 15.4,3.676c9.011,13.404 14.315,29.505 14.434,46.828Z" style="fill:#fff;stroke:#000;stroke-width:10px;"/><path id="Finger-3" serif:id="Finger 3" d="M109.647,130.213c-6.208,-1.784 -12.125,-4.255 -17.666,-7.326c-12.1,-6.707 -22.399,-16.275 -29.98,-27.789c-0.358,-1.977 -0.544,-4.013 -0.544,-6.092c-0,-13.936 8.386,-25.928 20.383,-31.201c11.287,8.545 23.942,15.373 37.578,20.095c3.002,1.04 6.052,1.978 9.146,2.809c10.339,2.779 21.162,4.371 32.315,4.62c5.36,6.019 8.618,13.95 8.618,22.636c-0,7.573 -2.477,14.572 -6.663,20.23c-9.237,3.437 -19.23,5.315 -29.658,5.315c-8.161,0 -16.055,-1.15 -23.529,-3.297Z" style="fill:#fff;stroke:#000;stroke-width:10px;"/>
<path id="Finger-2" serif:id="Finger 2" d="M171.866,176.84c-1.222,1.223 -2.515,2.333 -3.864,3.33l-10.481,-10.481l-38.317,38.317c-0.908,0.908 -1.854,1.754 -2.834,2.538c-13.369,10.694 -32.953,9.848 -45.339,-2.538c-4.931,-4.931 -8.033,-11.003 -9.306,-17.37l61.969,-61.968c1.214,-1.214 2.497,-2.317 3.836,-3.309c13.33,-9.874 32.257,-8.771 44.336,3.309c4.932,4.931 8.034,11.003 9.306,17.37c1.845,9.229 -0.154,19.078 -5.997,26.966c-0.992,1.339 -2.095,2.622 -3.309,3.836Z" style="fill:#fff;stroke:#000;stroke-width:10px;"/>
<path id="Finger-1" serif:id="Finger 1" d="M92.723,225.244c-2.508,-2.817 -4.468,-5.951 -5.878,-9.265l57.637,-57.637c12.745,-6.336 28.646,-4.197 39.26,6.417c3.554,3.554 6.158,7.7 7.811,12.122l-45.958,45.958c-0.017,0.023 -0.034,0.045 -0.05,0.068c-0.984,1.323 -2.076,2.592 -3.277,3.792c-12.819,12.819 -33.348,13.277 -46.717,1.373l-2.828,-2.828Z" style="fill:#fff;stroke:#000;stroke-width:10px;"/>
</svg>